<svg xmlns="http://www.w3.org/2000/svg" viewBox="0 0 375 200"><defs><style>.cls-1{fill:none;}.cls-2{fill:#00c058;}.cls-3{fill:#fff;}.cls-4{fill:#717073;}</style></defs><g id="Layer_2" data-name="Layer 2"><g id="Main"><rect id="Bounding_Box" data-name="Bounding Box" class="cls-1" width="375" height="200"/><g id="Isotype"><circle id="Green_circle" data-name="Green circle" class="cls-2" cx="101.98" cy="100" r="64"/><rect id="Bottom_stripe" data-name="Bottom stripe" class="cls-3" x="70.34" y="115.92" width="69" height="16"/><rect id="Mid_stripe" data-name="Mid stripe" class="cls-3" x="54.52" y="92.46" width="69" height="16"/><rect id="Top_stripe" data-name="Top stripe" class="cls-3" x="70.34" y="69" width="69" height="16"/></g><path class="cls-2" d="M191.64,73.92l-5.92-7.65-5.89,7.65H178l6.81-8.69L178.41,57h1.83l5.48,7.19L191.24,57h1.83l-6.43,8.23,6.81,8.72Z"/><path class="cls-2" d="M195.38,73.92V57h10.75v1.32h-9.3v6.28H206v1.32h-9.12V72.6h9.3v1.32Z"/><path class="cls-2" d="M218.79,73.92l-4.75-7H210.3v7h-1.45V57h6.33a4.81,4.81,0,0,1,5.16,5,4.65,4.65,0,0,1-4.7,4.87l4.9,7.12Zm0-12a3.52,3.52,0,0,0-3.76-3.64H210.3v7.29h4.75A3.53,3.53,0,0,0,218.81,61.93Z"/><path class="cls-2" d="M236,73.92l-1.68-4.17h-9l-1.67,4.17H222L229,57h1.8l6.94,17Zm-6.15-15.4-4,9.91h8Z"/><path class="cls-2" d="M238,65.46a8.42,8.42,0,0,1,8.59-8.77,7.61,7.61,0,0,1,6.17,3l-1.22.79A6.14,6.14,0,0,0,246.59,58c-4,0-7.07,3-7.07,7.45s3.1,7.44,7.07,7.44a6.16,6.16,0,0,0,4.95-2.46l1.25.76a7.7,7.7,0,0,1-6.2,3A8.41,8.41,0,0,1,238,65.46Z"/><path class="cls-2" d="M254.92,73.92V57h1.45v17Z"/><path class="cls-2" d="M259.26,65.46c0-5,3.25-8.77,8.23-8.77s8.23,3.81,8.23,8.77-3.28,8.76-8.23,8.76S259.26,70.41,259.26,65.46Zm14.94,0c0-4.3-2.65-7.45-6.71-7.45s-6.71,3.15-6.71,7.45,2.62,7.44,6.71,7.44S274.2,69.73,274.2,65.46Zm-7.07-10H266l3.91-3.66h1.57Z"/><path class="cls-2" d="M290.74,73.92,280.07,59.36V73.92h-1.45V57h1.47l10.62,14.36V57h1.45v17Z"/><path class="cls-2" d="M179.65,97.42v-17H190.4v1.32h-9.3v6.28h9.12v1.32H181.1V96.1h9.3v1.32Z"/><path class="cls-2" d="M192.87,90.91V80.47h1.48V90.89c0,3.43,1.8,5.51,5.13,5.51s5.13-2.08,5.13-5.51V80.47h1.47V90.91c0,4.2-2.23,6.81-6.6,6.81S192.87,95.08,192.87,90.91Z"/><path class="cls-2" d="M219.65,97.42l-4.75-7h-3.74v7h-1.44v-17H216a4.81,4.81,0,0,1,5.16,5,4.65,4.65,0,0,1-4.7,4.87l4.9,7.12Zm0-12a3.52,3.52,0,0,0-3.76-3.64h-4.76v7.29h4.76A3.53,3.53,0,0,0,219.68,85.43Z"/><path class="cls-2" d="M223.18,89c0-5,3.25-8.77,8.23-8.77S239.64,84,239.64,89s-3.27,8.76-8.23,8.76S223.18,93.91,223.18,89Zm14.94,0c0-4.3-2.64-7.45-6.71-7.45s-6.7,3.15-6.7,7.45,2.61,7.44,6.7,7.44S238.12,93.23,238.12,89Z"/><path class="cls-2" d="M242.54,97.42v-17h6.35a5,5,0,1,1,0,9.91H244v7Zm9.93-12a3.49,3.49,0,0,0-3.73-3.64H244v7.27h4.75A3.5,3.5,0,0,0,252.47,85.43Z"/><path class="cls-2" d="M256.15,97.42v-17h10.74v1.32h-9.3v6.28h9.13v1.32h-9.13V96.1h9.3v1.32Z"/><path class="cls-2" d="M282.46,97.42l-1.68-4.17h-9l-1.68,4.17h-1.67l6.93-17h1.81l6.93,17ZM276.31,82l-4,9.91h8Z"/><path class="cls-2" d="M179.65,120.92V104H190.4v1.32h-9.3v6.28h9.12v1.32H181.1v8Z"/><path class="cls-2" d="M192.53,120.92V104h10.75v1.32H194v6.28h9.12v1.32H194v6.71h9.3v1.32Z"/><path class="cls-2" d="M206,120.92V104h5.41a8.48,8.48,0,1,1,0,17Zm12.44-8.46c0-4-2.54-7.17-7-7.17h-4V119.6h4C215.89,119.6,218.45,116.42,218.45,112.46Z"/><path class="cls-2" d="M222.84,120.92V104h10.74v1.32h-9.29v6.28h9.12v1.32h-9.12v6.71h9.29v1.32Z"/><path class="cls-2" d="M246.24,120.92l-4.75-7h-3.73v7h-1.45V104h6.33a4.8,4.8,0,0,1,5.15,5,4.65,4.65,0,0,1-4.7,4.87l4.91,7.12Zm0-12a3.52,3.52,0,0,0-3.76-3.64h-4.75v7.29h4.75A3.53,3.53,0,0,0,246.27,108.93Z"/><path class="cls-2" d="M263.47,120.92l-1.67-4.17h-9l-1.68,4.17h-1.68l6.94-17h1.8l6.94,17Zm-6.15-15.4-4,9.91h8Z"/><path class="cls-2" d="M266.86,120.92V104h1.48V119.6h8.2v1.32Z"/><path class="cls-2" d="M278.65,120.92V104h1.45v17Z"/><path class="cls-2" d="M282.57,118.53l.94-1.09a7,7,0,0,0,5.31,2.46c3.45,0,4.44-1.93,4.44-3.38,0-5-10.16-2.39-10.16-8.31,0-2.76,2.49-4.52,5.57-4.52a7.29,7.29,0,0,1,5.74,2.39l-1,1.07a6,6,0,0,0-4.85-2.14c-2.26,0-4,1.3-4,3.13,0,4.34,10.16,2,10.16,8.28,0,2.19-1.45,4.8-6,4.8A7.87,7.87,0,0,1,282.57,118.53Z"/><path class="cls-2" d="M301.75,120.92V105.29h-5.54V104h12.55v1.32h-5.53v15.63Z"/><path class="cls-2" d="M321.2,120.92l-1.68-4.17h-9l-1.67,4.17H307.2l6.93-17h1.81l6.94,17Zm-6.15-15.4-4,9.91h8Z"/><path class="cls-4" d="M179,136a8.42,8.42,0,0,1,8.58-8.77,8,8,0,0,1,6.38,2.9l-1.09.79a6.91,6.91,0,0,0-5.29-2.37c-4,0-7.06,3-7.06,7.45s3.1,7.47,7.06,7.47a7.15,7.15,0,0,0,5-2.06V137.3h-6.4V136H194v5.92a8.58,8.58,0,0,1-6.43,2.82A8.44,8.44,0,0,1,179,136Z"/><path class="cls-4" d="M209.24,144.42l-1.68-4.17h-9l-1.67,4.17h-1.68l6.94-16.95H204l6.94,16.95ZM203.09,129l-4,9.91h8Z"/><path class="cls-4" d="M212.63,144.42V127.47h1.47V143.1h8.21v1.32Z"/><path class="cls-4" d="M224.42,144.42V127.47h1.45v16.95Z"/><path class="cls-4" d="M228.71,136a8.42,8.42,0,0,1,8.58-8.77,7.63,7.63,0,0,1,6.18,3l-1.22.79a6.16,6.16,0,0,0-5-2.47c-4,0-7.06,3-7.06,7.45s3.1,7.44,7.06,7.44a6.18,6.18,0,0,0,5-2.46l1.24.76a7.68,7.68,0,0,1-6.2,3A8.41,8.41,0,0,1,228.71,136Z"/><path class="cls-4" d="M245.63,144.42V127.47h1.45v16.95Z"/><path class="cls-4" d="M262.92,144.42l-1.68-4.17h-9l-1.68,4.17h-1.67l6.93-16.95h1.81l6.93,16.95ZM256.77,129l-4,9.91h8Z"/></g></g></svg>