<svg xmlns="http://www.w3.org/2000/svg" viewBox="0 0 284.9 128"><defs><style>.cls-1{fill:#00c058;}.cls-2{fill:#fff;}.cls-3{fill:#717073;}</style></defs><g id="Layer_2" data-name="Layer 2"><g id="Main"><g id="Isotype"><circle id="Green_circle" data-name="Green circle" class="cls-1" cx="64" cy="64" r="64"/><rect id="Bottom_stripe" data-name="Bottom stripe" class="cls-2" x="32.36" y="79.92" width="69" height="16"/><rect id="Mid_stripe" data-name="Mid stripe" class="cls-2" x="16.54" y="56.46" width="69" height="16"/><rect id="Top_stripe" data-name="Top stripe" class="cls-2" x="32.36" y="33" width="69" height="16"/></g><path class="cls-1" d="M153.67,37.92l-5.92-7.65-5.9,7.65h-1.8l6.81-8.69L140.43,21h1.83l5.49,7.19L153.26,21h1.83l-6.43,8.23,6.81,8.72Z"/><path class="cls-1" d="M157.41,37.92V21h10.74v1.32h-9.3v6.28H168v1.32h-9.12V36.6h9.3v1.32Z"/><path class="cls-1" d="M180.81,37.92l-4.75-7h-3.73v7h-1.45V21h6.32c2.93,0,5.16,1.86,5.16,5a4.65,4.65,0,0,1-4.7,4.87l4.9,7.12Zm0-12a3.52,3.52,0,0,0-3.76-3.64h-4.75v7.29h4.75A3.53,3.53,0,0,0,180.84,25.93Z"/><path class="cls-1" d="M198,37.92l-1.68-4.17h-9l-1.68,4.17H184L191,21h1.8l6.94,17Zm-6.15-15.4-4,9.91h8Z"/><path class="cls-1" d="M200,29.46a8.42,8.42,0,0,1,8.59-8.77,7.61,7.61,0,0,1,6.17,3l-1.22.79A6.13,6.13,0,0,0,208.61,22c-4,0-7.06,3-7.06,7.45s3.1,7.44,7.06,7.44a6.15,6.15,0,0,0,4.95-2.46l1.25.76a7.7,7.7,0,0,1-6.2,3A8.42,8.42,0,0,1,200,29.46Z"/><path class="cls-1" d="M217,37.92V21h1.45v17Z"/><path class="cls-1" d="M221.28,29.46c0-5,3.25-8.77,8.23-8.77s8.23,3.81,8.23,8.77-3.27,8.76-8.23,8.76S221.28,34.41,221.28,29.46Zm14.94,0c0-4.3-2.64-7.45-6.71-7.45s-6.71,3.15-6.71,7.45,2.62,7.44,6.71,7.44S236.22,33.73,236.22,29.46Zm-7.06-10H228L232,15.76h1.58Z"/><path class="cls-1" d="M252.76,37.92,242.09,23.36V37.92h-1.45V21h1.47l10.62,14.36V21h1.45v17Z"/><path class="cls-1" d="M141.67,61.42v-17h10.75v1.32h-9.3v6.28h9.12v1.32h-9.12V60.1h9.3v1.32Z"/><path class="cls-1" d="M154.9,54.91V44.47h1.47V54.89c0,3.43,1.8,5.51,5.13,5.51s5.13-2.08,5.13-5.51V44.47h1.48V54.91c0,4.2-2.24,6.81-6.61,6.81S154.9,59.08,154.9,54.91Z"/><path class="cls-1" d="M181.67,61.42l-4.75-7h-3.73v7h-1.45v-17h6.32c2.93,0,5.16,1.86,5.16,5a4.65,4.65,0,0,1-4.7,4.87l4.9,7.12Zm0-12a3.52,3.52,0,0,0-3.76-3.64h-4.75v7.29h4.75A3.53,3.53,0,0,0,181.7,49.43Z"/><path class="cls-1" d="M185.2,53c0-5,3.26-8.77,8.23-8.77S201.67,48,201.67,53s-3.28,8.76-8.24,8.76S185.2,57.91,185.2,53Zm14.94,0c0-4.3-2.64-7.45-6.71-7.45s-6.7,3.15-6.7,7.45,2.61,7.44,6.7,7.44S200.14,57.23,200.14,53Z"/><path class="cls-1" d="M204.56,61.42v-17h6.35a5,5,0,1,1,0,9.91H206v7Zm9.94-12a3.5,3.5,0,0,0-3.74-3.64H206v7.27h4.75A3.51,3.51,0,0,0,214.5,49.43Z"/><path class="cls-1" d="M218.17,61.42v-17h10.75v1.32h-9.3v6.28h9.12v1.32h-9.12V60.1h9.3v1.32Z"/><path class="cls-1" d="M244.48,61.42l-1.68-4.17h-9l-1.67,4.17h-1.68l6.94-17h1.8l6.94,17ZM238.33,46l-4,9.91h8Z"/><path class="cls-1" d="M141.67,84.92V68h10.75v1.32h-9.3v6.28h9.12v1.32h-9.12v8Z"/><path class="cls-1" d="M154.56,84.92V68H165.3v1.32H156v6.28h9.13v1.32H156V83.6h9.3v1.32Z"/><path class="cls-1" d="M168,84.92V68h5.41a8.48,8.48,0,1,1,0,17Zm12.45-8.46c0-4-2.54-7.17-7-7.17h-4V83.6h4C177.91,83.6,180.48,80.42,180.48,76.46Z"/><path class="cls-1" d="M184.86,84.92V68h10.75v1.32h-9.3v6.28h9.12v1.32h-9.12V83.6h9.3v1.32Z"/><path class="cls-1" d="M208.27,84.92l-4.76-7h-3.73v7h-1.45V68h6.33a4.81,4.81,0,0,1,5.16,5,4.65,4.65,0,0,1-4.7,4.87l4.9,7.12Zm0-12a3.52,3.52,0,0,0-3.76-3.64h-4.75v7.29h4.75A3.53,3.53,0,0,0,208.29,72.93Z"/><path class="cls-1" d="M225.49,84.92l-1.67-4.17h-9l-1.68,4.17H211.5l6.93-17h1.81l6.93,17Zm-6.14-15.4-4,9.91h8Z"/><path class="cls-1" d="M228.88,84.92V68h1.48V83.6h8.2v1.32Z"/><path class="cls-1" d="M240.68,84.92V68h1.44v17Z"/><path class="cls-1" d="M244.59,82.53l.94-1.09a7,7,0,0,0,5.31,2.46c3.46,0,4.45-1.93,4.45-3.38,0-5-10.17-2.39-10.17-8.31,0-2.76,2.49-4.52,5.57-4.52a7.29,7.29,0,0,1,5.74,2.39l-1,1.07A6,6,0,0,0,250.61,69c-2.26,0-4,1.3-4,3.13,0,4.34,10.16,2,10.16,8.28,0,2.19-1.45,4.8-6,4.8A7.89,7.89,0,0,1,244.59,82.53Z"/><path class="cls-1" d="M263.78,84.92V69.29h-5.54V68h12.55v1.32h-5.54V84.92Z"/><path class="cls-1" d="M283.22,84.92l-1.68-4.17h-9l-1.67,4.17h-1.68l6.94-17H278l6.94,17Zm-6.15-15.4-4,9.91h8Z"/><path class="cls-3" d="M141,100a8.42,8.42,0,0,1,8.59-8.77,8,8,0,0,1,6.37,2.9l-1.09.79a6.87,6.87,0,0,0-5.28-2.37c-4,0-7.07,3-7.07,7.45s3.1,7.47,7.07,7.47a7.13,7.13,0,0,0,5-2.06V101.3h-6.4V100h7.85v5.92a8.57,8.57,0,0,1-6.42,2.82A8.44,8.44,0,0,1,141,100Z"/><path class="cls-3" d="M171.26,108.42l-1.67-4.17h-9l-1.68,4.17h-1.68l6.94-17H166l6.94,17ZM165.11,93l-4,9.91h8Z"/><path class="cls-3" d="M174.65,108.42v-17h1.48V107.1h8.2v1.32Z"/><path class="cls-3" d="M186.44,108.42v-17h1.45v17Z"/><path class="cls-3" d="M190.73,100a8.42,8.42,0,0,1,8.58-8.77,7.62,7.62,0,0,1,6.18,3l-1.22.79a6.15,6.15,0,0,0-5-2.47c-4,0-7.06,3-7.06,7.45s3.1,7.44,7.06,7.44a6.17,6.17,0,0,0,5-2.46l1.24.76a7.68,7.68,0,0,1-6.2,3A8.41,8.41,0,0,1,190.73,100Z"/><path class="cls-3" d="M207.65,108.42v-17h1.45v17Z"/><path class="cls-3" d="M224.94,108.42l-1.68-4.17h-9l-1.67,4.17h-1.68l6.94-17h1.8l6.93,17ZM218.79,93l-4,9.91h8Z"/></g></g></svg>