<svg xmlns="http://www.w3.org/2000/svg" viewBox="0 0 375 200"><defs><style>.cls-1{fill:none;}.cls-2,.cls-4{fill:#00c058;}.cls-3{fill:#fff;}.cls-4{font-size:25.4px;font-family:ProximaNova-Light, Proxima Nova;font-weight:300;}.cls-30,.cls-4{letter-spacing:-0.03em;}.cls-5{letter-spacing:-0.03em;}.cls-6{letter-spacing:-0.01em;}.cls-7{letter-spacing:-0.06em;}.cls-8{letter-spacing:-0.03em;}.cls-9{letter-spacing:-0.03em;}.cls-10{letter-spacing:-0.03em;}.cls-11{letter-spacing:-0.03em;}.cls-12{letter-spacing:-0.04em;}.cls-13{letter-spacing:-0.02em;}.cls-14{letter-spacing:-0.04em;}.cls-15{letter-spacing:-0.04em;}.cls-16{letter-spacing:-0.01em;}.cls-17{letter-spacing:-0.03em;}.cls-18{letter-spacing:-0.03em;}.cls-19{letter-spacing:-0.03em;}.cls-20{letter-spacing:-0.03em;}.cls-21{letter-spacing:-0.01em;}.cls-22{letter-spacing:-0.02em;}.cls-23{letter-spacing:-0.03em;}.cls-24{letter-spacing:-0.03em;}.cls-25{letter-spacing:-0.03em;}.cls-26{letter-spacing:-0.11em;}.cls-27{fill:#717073;letter-spacing:-0.03em;}.cls-28{letter-spacing:-0.02em;}.cls-29{letter-spacing:-0.03em;}</style></defs><g id="Layer_2" data-name="Layer 2"><g id="Main"><rect id="Bounding_Box" data-name="Bounding Box" class="cls-1" width="375" height="200"/><g id="Isotype"><circle id="Green_circle" data-name="Green circle" class="cls-2" cx="101.98" cy="100" r="64"/><rect id="Bottom_stripe" data-name="Bottom stripe" class="cls-3" x="70.34" y="115.92" width="69" height="16"/><rect id="Mid_stripe" data-name="Mid stripe" class="cls-3" x="54.52" y="92.46" width="69" height="16"/><rect id="Top_stripe" data-name="Top stripe" class="cls-3" x="70.34" y="69" width="69" height="16"/></g><text id="Text" class="cls-4" transform="translate(177.54 73.92)">X<tspan class="cls-5" x="15.73" y="0">E</tspan><tspan class="cls-6" x="29.2" y="0">R</tspan><tspan class="cls-7" x="44.1" y="0">A</tspan><tspan class="cls-8" x="58.98" y="0">C</tspan><tspan class="cls-9" x="75.27" y="0">I</tspan><tspan class="cls-10" x="80.24" y="0">Ó</tspan><tspan class="cls-11" x="98.97" y="0">N</tspan><tspan class="cls-12"><tspan x="0" y="23.5">E</tspan><tspan class="cls-13" x="13.22" y="23.5">U</tspan><tspan class="cls-14" x="30.07" y="23.5">R</tspan><tspan class="cls-10" x="44.17" y="23.5">O</tspan><tspan class="cls-15" x="62.89" y="23.5">P</tspan><tspan class="cls-16" x="76.5" y="23.5">E</tspan><tspan class="cls-17" x="90.54" y="23.5">A</tspan></tspan><tspan class="cls-18"><tspan x="0" y="47">F</tspan><tspan class="cls-5" x="12.88" y="47">E</tspan><tspan class="cls-19" x="26.35" y="47">D</tspan><tspan class="cls-20" x="43.19" y="47">E</tspan><tspan class="cls-21" x="56.66" y="47">R</tspan><tspan class="cls-22" x="71.55" y="47">A</tspan><tspan class="cls-23" x="87.57" y="47">L</tspan><tspan class="cls-24" x="99" y="47">I</tspan><tspan class="cls-25" x="103.86" y="47">S</tspan><tspan class="cls-26" x="117.78" y="47">T</tspan><tspan class="cls-11" x="129.28" y="47">A</tspan></tspan><tspan class="cls-27"><tspan x="0" y="70.5">G</tspan><tspan class="cls-28" x="17.32" y="70.5">A</tspan><tspan class="cls-29" x="33.33" y="70.5">L</tspan><tspan class="cls-19" x="44.77" y="70.5">I</tspan><tspan class="cls-8" x="49.69" y="70.5">C</tspan><tspan class="cls-30" x="65.98" y="70.5">I</tspan><tspan class="cls-11" x="70.99" y="70.5">A</tspan></tspan></text></g></g></svg>